<svg width="30" height="30" viewBox="0 0 30 30" fill="none" xmlns="http://www.w3.org/2000/svg">
<g id="file-empty">
<path id="union-1" fill-rule="evenodd" clip-rule="evenodd" d="M11.25 5C9.17893 5 7.5 6.67893 7.5 8.75V21.25C7.5 23.3211 9.17893 25 11.25 25H18.75C20.8211 25 22.5 23.3211 22.5 21.25V12.5H18.75C16.6789 12.5 15 10.8211 15 8.75V5H11.25ZM17.5 6.76777L20.7322 10H18.75C18.0596 10 17.5 9.44036 17.5 8.75V6.76777ZM5 8.75C5 5.29822 7.79822 2.5 11.25 2.5H16.25C16.5815 2.5 16.8995 2.6317 17.1339 2.86612L24.6339 10.3661C24.8683 10.6005 25 10.9185 25 11.25V21.25C25 24.7018 22.2018 27.5 18.75 27.5H11.25C7.79822 27.5 5 24.7018 5 21.25V8.75Z" fill="black"/>
</g>
</svg>
