<svg width="34" height="20" viewBox="0 0 34 20" fill="none" xmlns="http://www.w3.org/2000/svg">
<g id="Group">
<path id="Vector" fill-rule="evenodd" clip-rule="evenodd" d="M25.715 0.0420574C25.8536 -0.00259662 26.0014 -0.0101679 26.1438 0.0200974C26.2862 0.0503627 26.4182 0.117408 26.5267 0.214557L33.3892 6.36372C33.499 6.46205 33.5808 6.58776 33.6261 6.728C33.6715 6.86825 33.6789 7.01803 33.6475 7.16206L31.6867 16.1479C31.6541 16.2973 31.5811 16.4349 31.4755 16.5456C31.37 16.6563 31.236 16.7358 31.0883 16.7754L22.265 19.1404C22.1245 19.1781 21.9766 19.1785 21.836 19.1413C21.6953 19.1042 21.5669 19.0309 21.4633 18.9287L17.6642 15.1787C17.5862 15.1018 17.5242 15.0104 17.4817 14.9095C17.4391 14.8087 17.4168 14.7004 17.4161 14.591C17.4153 14.4815 17.4362 14.373 17.4774 14.2716C17.5186 14.1702 17.5794 14.0779 17.6562 14C17.7331 13.9221 17.8246 13.86 17.9254 13.8175C18.0263 13.7749 18.1345 13.7526 18.244 13.7519C18.3534 13.7512 18.462 13.772 18.5634 13.8132C18.6648 13.8544 18.7571 13.9152 18.835 13.9921L22.2942 17.4071L30.1667 15.2971L31.9158 7.28039L25.7708 1.77539L17.8067 4.33622L16.9583 6.92789C16.8851 7.13214 16.7351 7.29978 16.5402 7.39515C16.3453 7.49052 16.1208 7.5061 15.9146 7.4386C15.7084 7.37109 15.5367 7.2258 15.4359 7.03364C15.3351 6.84147 15.3133 6.61758 15.375 6.40956L16.355 3.41372C16.396 3.28879 16.466 3.17533 16.5593 3.08264C16.6526 2.98994 16.7665 2.92064 16.8917 2.88039L25.715 0.0420574Z" fill="black"/>
<path id="Vector_2" fill-rule="evenodd" clip-rule="evenodd" d="M24.2675 8.35624C24.3743 8.38045 24.4752 8.42546 24.5646 8.4887C24.654 8.55194 24.73 8.63217 24.7883 8.7248C24.8467 8.81744 24.8862 8.92066 24.9047 9.02858C24.9231 9.13649 24.9201 9.24699 24.8958 9.35374L22.8125 18.5204C22.7617 18.7341 22.6286 18.9191 22.4421 19.0351C22.2556 19.1512 22.0309 19.189 21.8167 19.1402C21.6026 19.0914 21.4163 18.9601 21.2985 18.7747C21.1807 18.5894 21.1408 18.365 21.1875 18.1504L23.2708 8.98374C23.3199 8.76844 23.4524 8.58142 23.6393 8.46377C23.8262 8.34611 24.0521 8.30744 24.2675 8.35624Z" fill="black"/>
<path id="Vector_3" fill-rule="evenodd" clip-rule="evenodd" d="M16.7808 3.2129C16.8516 3.12936 16.9382 3.06059 17.0355 3.01052C17.1329 2.96045 17.2392 2.93006 17.3483 2.92108C17.4574 2.9121 17.5672 2.92472 17.6715 2.9582C17.7757 2.99169 17.8724 3.04539 17.9558 3.11623L24.0092 8.24956L29.6975 6.6979C29.9108 6.63977 30.1384 6.66875 30.3303 6.77846C30.5222 6.88817 30.6627 7.06962 30.7208 7.2829C30.779 7.49617 30.75 7.72381 30.6403 7.91572C30.5306 8.10763 30.3491 8.2481 30.1358 8.30623L24.0242 9.9729C23.8936 10.0085 23.7563 10.0118 23.6242 9.98249C23.4921 9.95316 23.3691 9.89209 23.2658 9.80456L16.8775 4.3879C16.794 4.31712 16.7252 4.23057 16.6751 4.1332C16.6251 4.03583 16.5947 3.92955 16.5857 3.82043C16.5767 3.71131 16.5893 3.60149 16.6228 3.49724C16.6563 3.393 16.71 3.29638 16.7808 3.2129ZM5.95167 4.39956C6.0567 4.29913 6.18618 4.22791 6.32725 4.19297C6.46831 4.15803 6.61606 4.16059 6.75583 4.2004L13.6475 6.1679C13.7875 6.20792 13.9145 6.28391 14.016 6.3883C14.1175 6.49269 14.1898 6.62185 14.2258 6.7629L16.14 14.2396C16.1783 14.3884 16.1746 14.545 16.1295 14.6919C16.0843 14.8388 15.9994 14.9704 15.8842 15.0721L10.5233 19.7937C10.4187 19.8861 10.2924 19.9507 10.1563 19.9815C10.0202 20.0124 9.87845 20.0086 9.74417 19.9704L2.8525 18.0021C2.71439 17.9627 2.5888 17.8883 2.48791 17.7861C2.38701 17.6839 2.31425 17.5573 2.27667 17.4187L0.361668 10.3354C0.322618 10.1907 0.323294 10.0382 0.363624 9.89392C0.403954 9.74961 0.482445 9.61885 0.590834 9.5154L5.95167 4.39956ZM6.75667 5.93456L2.1 10.3787L3.7625 16.5287L9.76334 18.2421L14.3992 14.1587L12.73 7.63956L6.75667 5.93456Z" fill="black"/>
<path id="Vector_4" fill-rule="evenodd" clip-rule="evenodd" d="M11.7558 8.57956C11.9121 8.73583 11.9998 8.94776 11.9998 9.16873C11.9998 9.3897 11.9121 9.60162 11.7558 9.75789L8.42249 13.0912C8.31809 13.1956 8.18785 13.2703 8.04509 13.3078C7.90234 13.3452 7.75218 13.3441 7.60999 13.3046L0.943328 11.4529C0.836863 11.4245 0.737076 11.3754 0.649741 11.3082C0.562407 11.241 0.489258 11.1572 0.434527 11.0616C0.379796 10.966 0.344569 10.8604 0.330885 10.7511C0.317201 10.6418 0.325331 10.5309 0.354804 10.4247C0.384278 10.3185 0.43451 10.2193 0.502595 10.1327C0.570679 10.046 0.655264 9.97377 0.751457 9.92005C0.847649 9.86634 0.953538 9.83222 1.063 9.8197C1.17246 9.80717 1.28332 9.81647 1.38916 9.84706L7.58749 11.5687L10.5775 8.57956C10.7338 8.42333 10.9457 8.33557 11.1667 8.33557C11.3876 8.33557 11.5996 8.42333 11.7558 8.57956Z" fill="black"/>
<path id="Vector_5" fill-rule="evenodd" clip-rule="evenodd" d="M7.63083 11.6937C7.84521 11.64 8.07214 11.6737 8.26171 11.7873C8.45128 11.9009 8.58795 12.0852 8.64166 12.2996L10.3083 18.9662C10.3358 19.0727 10.3419 19.1835 10.3264 19.2923C10.3109 19.4012 10.2739 19.5059 10.2177 19.6004C10.1616 19.6949 10.0872 19.7773 9.99907 19.843C9.91088 19.9086 9.81058 19.9562 9.70394 19.9829C9.5973 20.0096 9.48643 20.0149 9.37771 19.9986C9.269 19.9823 9.16458 19.9446 9.07049 19.8878C8.9764 19.8309 8.89448 19.756 8.82946 19.6674C8.76445 19.5787 8.71761 19.4781 8.69166 19.3712L7.02499 12.7046C6.97129 12.4902 7.00495 12.2633 7.11857 12.0737C7.23218 11.8841 7.41645 11.7475 7.63083 11.6937Z" fill="black"/>
</g>
</svg>
