<svg width="22" height="38" viewBox="0 0 22 38" fill="none" xmlns="http://www.w3.org/2000/svg">
<g id="Group">
<path id="Vector" d="M4.33334 2.00201H17.6667M6.00001 2.00201V6.65035C5.99997 7.96666 5.61026 9.25351 4.88001 10.3487L3.78667 11.9887C3.0561 13.0843 2.66638 14.3718 2.66667 15.6887V32.002C2.66667 32.8861 3.01786 33.7339 3.64298 34.359C4.2681 34.9842 5.11595 35.3353 6.00001 35.3353H16C16.8841 35.3353 17.7319 34.9842 18.357 34.359C18.9821 33.7339 19.3333 32.8861 19.3333 32.002V15.687C19.3333 14.3707 18.9436 13.0839 18.2133 11.9887L17.12 10.3487C16.3894 9.25304 15.9997 7.96556 16 6.64868V2.00201" stroke="black" stroke-width="3.75" stroke-linecap="round" stroke-linejoin="round"/>
<path id="Vector_2" d="M2.66667 23.6687C3.98625 23.1159 5.40264 22.8312 6.83334 22.8312C8.26403 22.8312 9.68043 23.1159 11 23.6687C12.3196 24.2215 13.736 24.5062 15.1667 24.5062C16.5974 24.5062 18.0138 24.2215 19.3333 23.6687" stroke="black" stroke-width="3.75" stroke-linecap="round" stroke-linejoin="round"/>
</g>
</svg>
