<svg width="34" height="37" viewBox="0 0 34 37" fill="none" xmlns="http://www.w3.org/2000/svg">
<g id="apple">
<path id="Vector" d="M17 35.0394C17 35.0394 32 35.0394 32 19.2831C32 7.6865 23.8067 7.1823 19.521 7.6865H14.479C10.1933 7.1823 2 7.6865 2 19.2831C2 35.0394 17 35.0394 17 35.0394Z" stroke="#202020" stroke-width="2.5" stroke-linecap="round" stroke-linejoin="round"/>
<path id="Vector_2" d="M13.9 7.76064C13.9 7.76064 12.6 2.96064 9.80005 2.16064" stroke="#202020" stroke-width="2.5" stroke-linecap="round" stroke-linejoin="round"/>
<path id="Vector_3" d="M20.1001 0.960693C20.1001 2.26025 19.5838 3.50655 18.6649 4.42548C17.746 5.3444 16.4997 5.86066 15.2001 5.86066C15.2001 4.5611 15.7163 3.3148 16.6353 2.39587C17.5542 1.47695 18.8005 0.960693 20.1001 0.960693Z" fill="#202020"/>
</g>
</svg>
