<svg width="40" height="41" viewBox="0 0 40 41" fill="none" xmlns="http://www.w3.org/2000/svg">
<g id="fluent-emoji-high-contrast:butter">
<path id="Vector" d="M24.1837 14.7062C23.8014 14.5188 23.3813 14.4215 22.9555 14.4217C22.5297 14.4219 22.1096 14.5197 21.7275 14.7074L11.675 19.5199L11.6662 19.5262C11.3791 19.6713 11.1265 19.8762 10.9253 20.1272C10.7241 20.3782 10.5791 20.6694 10.5 20.9812C9.85904 20.8178 9.18079 20.8887 8.5875 21.1812L7.3625 21.7687L7.3525 21.7749C6.62125 22.1399 6.12375 22.8874 6.12375 23.7549V25.7499L2.365 27.5812L2.3525 27.5874C2.02497 27.7471 1.74835 27.9948 1.55363 28.3028C1.35891 28.6107 1.25378 28.9668 1.25 29.3312V30.8562C1.25 31.5587 1.625 32.2724 2.35375 32.6362L15.045 38.8762C15.6016 39.1528 16.2147 39.2967 16.8362 39.2967C17.4578 39.2967 18.0709 39.1528 18.6275 38.8762L37.6225 29.6299L37.635 29.6237C38.3625 29.2612 38.7375 28.5449 38.7375 27.8437V26.3187C38.7334 25.9544 38.6279 25.5985 38.433 25.2907C38.2381 24.983 37.9613 24.7356 37.6337 24.5762L34.275 22.9237V21.0437C34.2735 20.6321 34.1578 20.229 33.9409 19.8793C33.724 19.5295 33.4143 19.2467 33.0462 19.0624L24.1887 14.7099L24.1837 14.7062ZM21.1375 27.5187C21.1375 27.2437 21.0862 26.9762 20.99 26.7287L21.375 26.9187C21.6125 27.0312 21.7625 27.2812 21.7625 27.5437V30.9562C21.7625 31.2562 21.45 31.4562 21.175 31.3187L21.1375 31.2999V27.5187ZM6.125 28.4312C6.125 29.2174 6.5775 29.9074 7.2325 30.2512L7.24625 30.2587L16.4737 34.7912L16.4875 34.7974C16.7851 34.9382 17.1099 35.0119 17.439 35.0134C17.7682 35.0149 18.0937 34.9442 18.3925 34.8062L18.405 34.7999L19.995 34.0312L20.0087 34.0237C20.5725 33.7424 20.9512 33.2349 21.0837 32.6587C21.6212 32.8287 22.2 32.7862 22.705 32.5562L22.7175 32.5512L33.1375 27.5537L33.1462 27.5487C33.8587 27.1937 34.275 26.4774 34.275 25.7187V24.3174L37.075 25.6924C37.625 25.9674 37.625 26.7424 37.075 27.0174L18.075 36.2674C17.3 36.6549 16.375 36.6549 15.6 36.2674L2.9125 30.0312C2.78848 29.9705 2.68398 29.8763 2.61088 29.7592C2.53779 29.642 2.49904 29.5068 2.49904 29.3687C2.49904 29.2306 2.53779 29.0954 2.61088 28.9782C2.68398 28.8611 2.78848 28.7669 2.9125 28.7062L6.125 27.1424V28.4312ZM22.2625 15.8312C22.7 15.6187 23.2 15.6187 23.65 15.8312L32.4125 20.1437C32.6625 20.2687 32.6625 20.6312 32.4125 20.7562L22.25 25.6312C21.9375 25.7812 21.5875 25.7812 21.2875 25.6312L12.3125 21.2187C12.0625 21.0937 12.0625 20.7312 12.3125 20.6062L22.2625 15.8312ZM7.375 24.9562C7.375 24.7062 7.6375 24.5312 7.875 24.6437L17.075 29.1687C17.1718 29.2159 17.2562 29.2851 17.3213 29.3709C17.3865 29.4567 17.4305 29.5565 17.45 29.6624V33.1937C17.4497 33.2201 17.4522 33.2465 17.4575 33.2724C17.4475 33.3354 17.4228 33.3951 17.3853 33.4467C17.3478 33.4982 17.2986 33.5402 17.2418 33.5691C17.1849 33.598 17.1221 33.613 17.0583 33.6129C16.9946 33.6129 16.9318 33.5977 16.875 33.5687L7.825 29.1187C7.69119 29.0569 7.57778 28.9582 7.49808 28.8342C7.41837 28.7102 7.37568 28.5661 7.375 28.4187V24.9562ZM8 22.8437L9.125 22.3062C9.5625 22.0937 10.0625 22.0937 10.5 22.3062L19.2625 26.6062C19.5125 26.7312 19.5125 27.0937 19.2625 27.2187L17.9375 27.8687C17.625 28.0187 17.275 28.0187 16.975 27.8687L8 23.4562C7.75 23.3312 7.75 22.9687 8 22.8437Z" fill="black"/>
</g>
</svg>
