<svg width="30" height="30" viewBox="0 0 30 30" fill="none" xmlns="http://www.w3.org/2000/svg">
<g id="Database" clip-path="url(#clip0_6_644)">
<path id="icon" fill-rule="evenodd" clip-rule="evenodd" d="M1.18182 4.88105C1.18182 4.54916 1.34686 4.0925 1.94725 3.5324C2.5497 2.97039 3.49434 2.40262 4.7736 1.89786C7.32416 0.891473 10.9392 0.239624 14.9999 0.239624C19.0606 0.239624 22.6757 0.891473 25.2261 1.89786C26.5054 2.40262 27.4502 2.97039 28.0526 3.5324C28.653 4.0925 28.818 4.54916 28.818 4.88105C28.818 5.21291 28.653 5.6696 28.0526 6.22968C27.4502 6.79168 26.5054 7.35946 25.2261 7.86423C22.6757 8.87062 19.0606 9.52246 14.9999 9.52246C10.9392 9.52246 7.32416 8.87062 4.7736 7.86423C3.49434 7.35946 2.5497 6.79168 1.94725 6.22968C1.34686 5.6696 1.18182 5.21291 1.18182 4.88105ZM28.9545 8.92944C28.1674 9.47634 27.2346 9.95128 26.2093 10.3559C23.274 11.514 19.3104 12.201 14.9999 12.201C10.6894 12.201 6.72579 11.514 3.79046 10.3559C2.76521 9.9513 1.83248 9.4764 1.04553 8.92953V15.7391C1.16547 15.921 1.33582 16.1206 1.57309 16.3363C2.1945 16.9013 3.16839 17.4717 4.48532 17.9784C7.1103 18.9882 10.8273 19.6414 15 19.6414C19.1726 19.6414 22.8898 18.9882 25.5146 17.9784C26.8316 17.4717 27.8055 16.9013 28.4269 16.3363C28.6641 16.1206 28.8345 15.9211 28.9545 15.7391V8.92944ZM1.04553 24.0193V19.2701C1.7766 19.7262 2.61437 20.1285 3.52361 20.4783C6.52648 21.6336 10.5843 22.32 15 22.32C19.4156 22.32 23.4735 21.6336 26.4763 20.4783C27.3855 20.1285 28.2234 19.7262 28.9545 19.2701V24.0193C28.9545 27.3206 22.7072 30 15 30C7.29283 30 1.04553 27.3206 1.04553 24.0193Z" fill="black"/>
</g>
<defs>
<clipPath id="clip0_6_644">
<rect width="30" height="30" fill="white"/>
</clipPath>
</defs>
</svg>
